<?xml version="1.0" encoding="UTF-8"?><svg id="Layer_1" xmlns="http://www.w3.org/2000/svg" viewBox="0 0 127.71 78.51"><defs><style>.cls-1{fill:#020302;}.cls-2{fill:#f3574b;}.cls-3{fill:#fff;}</style></defs><path class="cls-2" d="m61.14,0l-11.81,11.81v66.7l26.83-11.5h39.74l11.81-11.81V0"/><path class="cls-1" d="m0,29.2h2.56v.74c.67-.66,1.42-.91,2.19-.91s1.3.38,1.58,1.1c.72-.82,1.54-1.1,2.35-1.1,1.09,0,1.79.83,1.79,2.24v7.19h-2.56v-6.91c0-.51-.18-.72-.54-.72-.22,0-.58.13-.86.34v7.3h-2.53v-6.91c0-.51-.19-.72-.56-.72-.24,0-.56.13-.87.34v7.3H0v-9.25Z"/><path class="cls-1" d="m11.86,35.59v-3.52c0-2.02,1.25-3.02,3.23-3.02s3.25,1.01,3.25,3.02v3.52c0,2.02-1.28,3.03-3.25,3.03s-3.23-1.01-3.23-3.03Zm3.91.18v-3.87c0-.7-.14-1.12-.66-1.12s-.67.43-.67,1.12v3.87c0,.7.16,1.12.67,1.12s.66-.42.66-1.12Z"/><path class="cls-1" d="m20.05,35.94v-5.03h-.9v-1.71h.9v-2.82h2.64v2.82h1.31v1.71h-1.31v4.77c0,.53.34.75.82.75.27,0,.51-.03.7-.06v2.05c-.29.05-.94.13-1.57.13-2.1,0-2.59-.94-2.59-2.61Z"/><path class="cls-1" d="m25.44,25.82h2.62v1.81h-2.62v-1.81Zm.02,3.38h2.61v9.25h-2.61v-9.25Z"/><path class="cls-1" d="m29.49,35.59v-3.52c0-2.02,1.25-3.02,3.23-3.02s3.25,1.01,3.25,3.02v3.52c0,2.02-1.28,3.03-3.25,3.03s-3.23-1.01-3.23-3.03Zm3.91.18v-3.87c0-.7-.14-1.12-.66-1.12s-.67.43-.67,1.12v3.87c0,.7.16,1.12.67,1.12s.66-.42.66-1.12Z"/><path class="cls-1" d="m37.41,29.2h2.61v.93c.67-.67,1.41-1.09,2.22-1.09,1.14,0,1.71.93,1.71,2.16v7.25h-2.59v-6.88c0-.45-.13-.69-.53-.69-.21,0-.51.13-.82.34v7.23h-2.61v-9.25Z"/><path class="cls-1" d="m32.33,54.48v.7h-2.61v-12.97h2.61v4.39c.64-.56,1.36-.83,2.02-.83,1.41,0,1.98,1.22,1.98,2.72v3.99c0,1.73-.7,2.87-2.02,2.87-.69,0-1.38-.34-1.98-.86Zm1.39-1.86v-4.32c0-.53-.18-.96-.64-.96-.29,0-.53.13-.75.3v5.76c.22.16.48.26.72.26.5,0,.67-.46.67-1.04Z"/><path class="cls-1" d="m38.07,56.07c.98,0,1.49-.16,1.49-.78,0-.35-.14-.9-.34-1.55l-2.18-7.79h2.45l1.17,5.35.88-5.35h2.46l-2.13,9.48c-.43,1.92-1.58,2.47-3.22,2.47h-.59v-1.81Z"/><path class="cls-3" d="m61.14,14.1v41.1h9.27v-14.23h1.37v14.23h11.5V11.81h-19.84l-2.3,2.3Zm10.64,10.76v4.31h-1.37v-4.31h1.37Z"/><path class="cls-3" d="m86.86,11.8h12.68v29.18h1.37V11.8h12.67l2.31,2.31v41.09h-6.7v-26.05h-1.37v26.05h-15.2v-26.05h-1.37v26.05h-6.7V14.11l2.31-2.31Z"/></svg>